STARTFONT 2.1
COMMENT This font was automatically resized by bdfresize-1.5
COMMENT   mag_x = 2/1, mag_y = 2/1, blackness = 4
COMMENT "Generated by fontforge, http://fontforge.sourceforge.net"
FONT -artwiz-snapheb-Normal-R-Normal--20-200-75-75-P-128-ISO10646-1
SIZE 20 75 75
FONTBOUNDINGBOX 16 20 0 -4
STARTPROPERTIES 29
FONT_NAME "snaphebnormal"
FONT_ASCENT 16
FONT_DESCENT 4
DEFAULT_CHAR 0
UNDERLINE_POSITION 50
UNDERLINE_THICKNESS 50
QUAD_WIDTH 10
X_HEIGHT 4
CAP_HEIGHT 5
FONTNAME_REGISTRY ""
FAMILY_NAME "snapheb"
FOUNDRY "artwiz"
WEIGHT_NAME "Normal"
SETWIDTH_NAME "Normal"
SLANT "R"
ADD_STYLE_NAME ""
PIXEL_SIZE 20
POINT_SIZE 200
RESOLUTION_X 75
RESOLUTION_Y 75
RESOLUTION 75
SPACING "P"
AVERAGE_WIDTH 128
CHARSET_REGISTRY "ISO10646"
CHARSET_ENCODING "-1"
CHARSET_COLLECTIONS "ASCII ISO8859-5 ISO8859-8 ISO10646-1"
FULL_NAME "snapheb normal"
COPYRIGHT "Copyright artwiz, fixed by aLEczapKA, .se layout by vendis, 8859-15 completed by rasher"
_GBDFED_INFO "Edited with gbdfed 1.5."
ENDPROPERTIES
CHARS 285
STARTCHAR <control>
ENCODING 0
SWIDTH 672 0
DWIDTH 14 0
BBX 10 14 2 0
BITMAP
CCC0
CCC0
0000
0000
C0C0
C0C0
0000
0000
C0C0
C0C0
0000
0000
CCC0
CCC0
ENDCHAR
STARTCHAR SPACE
ENCODING 32
SWIDTH 288 0
DWIDTH 6 0
BBX 0 0 0 0
BITMAP
ENDCHAR
STARTCHAR EXCLAMATION MARK
ENCODING 33
SWIDTH 192 0
DWIDTH 4 0
BBX 2 14 1 0
BITMAP
C0
C0
C0
C0
C0
C0
C0
C0
C0
C0
00
00
C0
C0
ENDCHAR
STARTCHAR QUOTATION MARK
ENCODING 34
SWIDTH 384 0
DWIDTH 8 0
BBX 6 6 1 8
BITMAP
CC
CC
CC
CC
CC
CC
ENDCHAR
STARTCHAR NUMBER SIGN
ENCODING 35
SWIDTH 576 0
DWIDTH 12 0
BBX 10 10 1 2
BITMAP
3300
3300
FFC0
FFC0
3300
3300
FFC0
FFC0
3300
3300
ENDCHAR
STARTCHAR DOLLAR SIGN
ENCODING 36
SWIDTH 576 0
DWIDTH 12 0
BBX 10 16 1 -2
BITMAP
0C00
0C00
FFC0
FFC0
CC00
CC00
FFC0
FFC0
0CC0
0CC0
0CC0
0CC0
FFC0
FFC0
0C00
0C00
ENDCHAR
STARTCHAR PERCENT SIGN
ENCODING 37
SWIDTH 720 0
DWIDTH 15 0
BBX 13 12 1 0
BITMAP
3018
7830
CC60
CCC0
7980
3300
0660
0CF0
1998
3198
60F0
C060
ENDCHAR
STARTCHAR AMPERSAND
ENCODING 38
SWIDTH 672 0
DWIDTH 14 0
BBX 12 12 1 0
BITMAP
3C00
7E00
C300
C300
7E00
7E30
C360
C1C0
C0C0
C1E0
7FB0
3F10
ENDCHAR
STARTCHAR APOSTROPHE
ENCODING 39
SWIDTH 288 0
DWIDTH 6 0
BBX 4 6 1 8
BITMAP
30
30
30
30
E0
C0
ENDCHAR
STARTCHAR LEFT PARENTHESIS
ENCODING 40
SWIDTH 384 0
DWIDTH 8 0
BBX 6 20 1 -4
BITMAP
0C
18
30
60
C0
C0
C0
C0
C0
C0
C0
C0
C0
C0
C0
C0
60
30
18
0C
ENDCHAR
STARTCHAR RIGHT PARENTHESIS
ENCODING 41
SWIDTH 384 0
DWIDTH 8 0
BBX 6 20 1 -4
BITMAP
C0
60
30
18
0C
0C
0C
0C
0C
0C
0C
0C
0C
0C
0C
0C
18
30
60
C0
ENDCHAR
STARTCHAR ASTERISK
ENCODING 42
SWIDTH 480 0
DWIDTH 10 0
BBX 8 6 1 8
BITMAP
C3
E7
3C
3C
E7
C3
ENDCHAR
STARTCHAR PLUS SIGN
ENCODING 43
SWIDTH 576 0
DWIDTH 12 0
BBX 10 10 1 2
BITMAP
0C00
0C00
0C00
0C00
FFC0
FFC0
0C00
0C00
0C00
0C00
ENDCHAR
STARTCHAR COMMA
ENCODING 44
SWIDTH 288 0
DWIDTH 6 0
BBX 4 7 1 -4
BITMAP
30
30
30
30
30
E0
C0
ENDCHAR
STARTCHAR HYPHEN-MINUS
ENCODING 45
SWIDTH 480 0
DWIDTH 10 0
BBX 8 2 1 6
BITMAP
FF
FF
ENDCHAR
STARTCHAR FULL STOP
ENCODING 46
SWIDTH 192 0
DWIDTH 4 0
BBX 2 2 1 0
BITMAP
C0
C0
ENDCHAR
STARTCHAR SOLIDUS
ENCODING 47
SWIDTH 432 0
DWIDTH 9 0
BBX 9 16 0 -2
BITMAP
0180
0180
0300
0300
0600
0600
0C00
0C00
1800
1800
3000
3000
6000
6000
C000
C000
ENDCHAR
STARTCHAR DIGIT ZERO
ENCODING 48
SWIDTH 576 0
DWIDTH 12 0
BBX 10 12 1 0
BITMAP
FFC0
FFC0
C0C0
C0C0
C0C0
C0C0
C0C0
C0C0
C0C0
C0C0
FFC0
FFC0
ENDCHAR
STARTCHAR DIGIT ONE
ENCODING 49
SWIDTH 576 0
DWIDTH 12 0
BBX 4 12 3 0
BITMAP
F0
F0
30
30
30
30
30
30
30
30
30
30
ENDCHAR
STARTCHAR DIGIT TWO
ENCODING 50
SWIDTH 576 0
DWIDTH 12 0
BBX 10 12 1 0
BITMAP
FFC0
FFC0
00C0
00C0
FFC0
FFC0
C000
C000
C000
C000
FFC0
FFC0
ENDCHAR
STARTCHAR DIGIT THREE
ENCODING 51
SWIDTH 576 0
DWIDTH 12 0
BBX 10 12 1 0
BITMAP
FFC0
FFC0
00C0
00C0
FFC0
FFC0
00C0
00C0
00C0
00C0
FFC0
FFC0
ENDCHAR
STARTCHAR DIGIT FOUR
ENCODING 52
SWIDTH 576 0
DWIDTH 12 0
BBX 10 12 1 0
BITMAP
C0C0
C0C0
C0C0
C0C0
FFC0
FFC0
00C0
00C0
00C0
00C0
00C0
00C0
ENDCHAR
STARTCHAR DIGIT FIVE
ENCODING 53
SWIDTH 576 0
DWIDTH 12 0
BBX 10 12 1 0
BITMAP
FFC0
FFC0
C000
C000
FFC0
FFC0
00C0
00C0
00C0
00C0
FFC0
FFC0
ENDCHAR
STARTCHAR DIGIT SIX
ENCODING 54
SWIDTH 576 0
DWIDTH 12 0
BBX 10 12 1 0
BITMAP
FFC0
FFC0
C000
C000
FFC0
FFC0
C0C0
C0C0
C0C0
C0C0
FFC0
FFC0
ENDCHAR
STARTCHAR DIGIT SEVEN
ENCODING 55
SWIDTH 576 0
DWIDTH 12 0
BBX 10 12 1 0
BITMAP
FFC0
FFC0
00C0
00C0
00C0
00C0
00C0
00C0
00C0
00C0
00C0
00C0
ENDCHAR
STARTCHAR DIGIT EIGHT
ENCODING 56
SWIDTH 576 0
DWIDTH 12 0
BBX 10 12 1 0
BITMAP
FFC0
FFC0
C0C0
C0C0
FFC0
FFC0
C0C0
C0C0
C0C0
C0C0
FFC0
FFC0
ENDCHAR
STARTCHAR DIGIT NINE
ENCODING 57
SWIDTH 576 0
DWIDTH 12 0
BBX 10 12 1 0
BITMAP
FFC0
FFC0
C0C0
C0C0
FFC0
FFC0
00C0
00C0
00C0
00C0
00C0
00C0
ENDCHAR
STARTCHAR COLON
ENCODING 58
SWIDTH 192 0
DWIDTH 4 0
BBX 2 12 1 0
BITMAP
C0
C0
C0
C0
00
00
00
00
C0
C0
C0
C0
ENDCHAR
STARTCHAR SEMICOLON
ENCODING 59
SWIDTH 288 0
DWIDTH 6 0
BBX 4 14 1 -2
BITMAP
30
30
30
30
00
00
00
00
30
30
30
30
E0
C0
ENDCHAR
STARTCHAR LESS-THAN SIGN
ENCODING 60
SWIDTH 480 0
DWIDTH 10 0
BBX 8 14 1 0
BITMAP
03
06
0C
18
30
60
C0
C0
60
30
18
0C
06
03
ENDCHAR
STARTCHAR EQUALS SIGN
ENCODING 61
SWIDTH 480 0
DWIDTH 10 0
BBX 8 6 1 4
BITMAP
FF
FF
00
00
FF
FF
ENDCHAR
STARTCHAR GREATER-THAN SIGN
ENCODING 62
SWIDTH 480 0
DWIDTH 10 0
BBX 8 14 1 0
BITMAP
C0
60
30
18
0C
06
03
03
06
0C
18
30
60
C0
ENDCHAR
STARTCHAR QUESTION MARK
ENCODING 63
SWIDTH 480 0
DWIDTH 10 0
BBX 8 12 1 0
BITMAP
FF
FF
03
03
3F
3F
30
30
00
00
30
30
ENDCHAR
STARTCHAR COMMERCIAL AT
ENCODING 64
SWIDTH 576 0
DWIDTH 12 0
BBX 10 12 1 0
BITMAP
FFC0
FFC0
C0C0
C0C0
CCC0
CCC0
CFC0
CFC0
C000
C000
FFC0
FFC0
ENDCHAR
STARTCHAR LATIN CAPITAL LETTER A
ENCODING 65
SWIDTH 576 0
DWIDTH 12 0
BBX 10 12 1 0
BITMAP
FFC0
FFC0
C0C0
C0C0
FFC0
FFC0
C0C0
C0C0
C0C0
C0C0
C0C0
C0C0
ENDCHAR
STARTCHAR LATIN CAPITAL LETTER B
ENCODING 66
SWIDTH 576 0
DWIDTH 12 0
BBX 10 12 1 0
BITMAP
FF80
FFC0
C0C0
C0C0
FF80
FF80
C0C0
C0C0
C0C0
C0C0
FFC0
FF80
ENDCHAR
STARTCHAR LATIN CAPITAL LETTER C
ENCODING 67
SWIDTH 576 0
DWIDTH 12 0
BBX 10 12 1 0
BITMAP
7FC0
FFC0
C000
C000
C000
C000
C000
C000
C000
C000
FFC0
7FC0
ENDCHAR
STARTCHAR LATIN CAPITAL LETTER D
ENCODING 68
SWIDTH 576 0
DWIDTH 12 0
BBX 10 12 1 0
BITMAP
FF00
FF80
C0C0
C0C0
C0C0
C0C0
C0C0
C0C0
C0C0
C0C0
FF80
FF00
ENDCHAR
STARTCHAR LATIN CAPITAL LETTER E
ENCODING 69
SWIDTH 480 0
DWIDTH 10 0
BBX 8 12 1 0
BITMAP
FF
FF
C0
C0
FF
FF
C0
C0
C0
C0
FF
FF
ENDCHAR
STARTCHAR LATIN CAPITAL LETTER F
ENCODING 70
SWIDTH 480 0
DWIDTH 10 0
BBX 8 12 1 0
BITMAP
FF
FF
C0
C0
FF
FF
C0
C0
C0
C0
C0
C0
ENDCHAR
STARTCHAR LATIN CAPITAL LETTER G
ENCODING 71
SWIDTH 576 0
DWIDTH 12 0
BBX 10 12 1 0
BITMAP
FFC0
FFC0
C000
C000
CFC0
CFC0
C0C0
C0C0
C0C0
C0C0
FFC0
FFC0
ENDCHAR
STARTCHAR LATIN CAPITAL LETTER H
ENCODING 72
SWIDTH 576 0
DWIDTH 12 0
BBX 10 12 1 0
BITMAP
C0C0
C0C0
C0C0
C0C0
FFC0
FFC0
C0C0
C0C0
C0C0
C0C0
C0C0
C0C0
ENDCHAR
STARTCHAR LATIN CAPITAL LETTER I
ENCODING 73
SWIDTH 192 0
DWIDTH 4 0
BBX 2 12 1 0
BITMAP
C0
C0
C0
C0
C0
C0
C0
C0
C0
C0
C0
C0
ENDCHAR
STARTCHAR LATIN CAPITAL LETTER J
ENCODING 74
SWIDTH 384 0
DWIDTH 8 0
BBX 6 14 1 -2
BITMAP
0C
0C
0C
0C
0C
0C
0C
0C
0C
0C
0C
0C
FC
FC
ENDCHAR
STARTCHAR LATIN CAPITAL LETTER K
ENCODING 75
SWIDTH 576 0
DWIDTH 12 0
BBX 10 12 1 0
BITMAP
C0C0
C180
C300
C600
FC00
FC00
C600
C300
C180
C0C0
C0C0
C0C0
ENDCHAR
STARTCHAR LATIN CAPITAL LETTER L
ENCODING 76
SWIDTH 480 0
DWIDTH 10 0
BBX 8 12 1 0
BITMAP
C0
C0
C0
C0
C0
C0
C0
C0
C0
C0
FF
FF
ENDCHAR
STARTCHAR LATIN CAPITAL LETTER M
ENCODING 77
SWIDTH 768 0
DWIDTH 16 0
BBX 14 12 1 0
BITMAP
FFFC
FFFC
C30C
C30C
C30C
C30C
C30C
C30C
C30C
C30C
C30C
C30C
ENDCHAR
STARTCHAR LATIN CAPITAL LETTER N
ENCODING 78
SWIDTH 576 0
DWIDTH 12 0
BBX 10 12 1 0
BITMAP
FFC0
FFC0
C0C0
C0C0
C0C0
C0C0
C0C0
C0C0
C0C0
C0C0
C0C0
C0C0
ENDCHAR
STARTCHAR LATIN CAPITAL LETTER O
ENCODING 79
SWIDTH 576 0
DWIDTH 12 0
BBX 10 12 1 0
BITMAP
FFC0
FFC0
C0C0
C0C0
C0C0
C0C0
C0C0
C0C0
C0C0
C0C0
FFC0
FFC0
ENDCHAR
STARTCHAR LATIN CAPITAL LETTER P
ENCODING 80
SWIDTH 576 0
DWIDTH 12 0
BBX 10 12 1 0
BITMAP
FFC0
FFC0
C0C0
C0C0
FFC0
FFC0
C000
C000
C000
C000
C000
C000
ENDCHAR
STARTCHAR LATIN CAPITAL LETTER Q
ENCODING 81
SWIDTH 672 0
DWIDTH 14 0
BBX 12 14 1 -2
BITMAP
FFC0
FFC0
C0C0
C0C0
C0C0
C0C0
C0C0
C0C0
C0C0
C0C0
FFC0
FFC0
00F0
0070
ENDCHAR
STARTCHAR LATIN CAPITAL LETTER R
ENCODING 82
SWIDTH 576 0
DWIDTH 12 0
BBX 10 12 1 0
BITMAP
FFC0
FFC0
C0C0
C0C0
FFC0
FFC0
C300
C300
C180
C180
C0C0
C0C0
ENDCHAR
STARTCHAR LATIN CAPITAL LETTER S
ENCODING 83
SWIDTH 576 0
DWIDTH 12 0
BBX 10 12 1 0
BITMAP
FFC0
FFC0
C000
C000
FFC0
FFC0
00C0
00C0
00C0
00C0
FFC0
FFC0
ENDCHAR
STARTCHAR LATIN CAPITAL LETTER T
ENCODING 84
SWIDTH 576 0
DWIDTH 12 0
BBX 10 12 1 0
BITMAP
FFC0
FFC0
0C00
0C00
0C00
0C00
0C00
0C00
0C00
0C00
0C00
0C00
ENDCHAR
STARTCHAR LATIN CAPITAL LETTER U
ENCODING 85
SWIDTH 576 0
DWIDTH 12 0
BBX 10 12 1 0
BITMAP
C0C0
C0C0
C0C0
C0C0
C0C0
C0C0
C0C0
C0C0
C0C0
C0C0
FFC0
FFC0
ENDCHAR
STARTCHAR LATIN CAPITAL LETTER V
ENCODING 86
SWIDTH 576 0
DWIDTH 12 0
BBX 10 12 1 0
BITMAP
C0C0
C0C0
C0C0
C0C0
C0C0
C0C0
C0C0
C0C0
6180
3300
1E00
0C00
ENDCHAR
STARTCHAR LATIN CAPITAL LETTER W
ENCODING 87
SWIDTH 768 0
DWIDTH 16 0
BBX 14 12 1 0
BITMAP
C30C
C30C
C30C
C30C
C30C
C30C
C30C
C30C
C30C
C30C
FFFC
FFFC
ENDCHAR
STARTCHAR LATIN CAPITAL LETTER X
ENCODING 88
SWIDTH 576 0
DWIDTH 12 0
BBX 10 12 1 0
BITMAP
C0C0
C0C0
6180
3300
1E00
0C00
1E00
3300
6180
C0C0
C0C0
C0C0
ENDCHAR
STARTCHAR LATIN CAPITAL LETTER Y
ENCODING 89
SWIDTH 576 0
DWIDTH 12 0
BBX 10 14 1 0
BITMAP
C0C0
C0C0
C0C0
C0C0
FFC0
7F80
0C00
0C00
0C00
0C00
0C00
0C00
0C00
0C00
ENDCHAR
STARTCHAR LATIN CAPITAL LETTER Z
ENCODING 90
SWIDTH 576 0
DWIDTH 12 0
BBX 10 12 1 0
BITMAP
FFC0
FFC0
0180
0300
0600
0C00
1800
3000
6000
C000
FFC0
FFC0
ENDCHAR
STARTCHAR LEFT SQUARE BRACKET
ENCODING 91
SWIDTH 384 0
DWIDTH 8 0
BBX 6 20 1 -4
BITMAP
FC
FC
C0
C0
C0
C0
C0
C0
C0
C0
C0
C0
C0
C0
C0
C0
C0
C0
FC
FC
ENDCHAR
STARTCHAR REVERSE SOLIDUS
ENCODING 92
SWIDTH 432 0
DWIDTH 9 0
BBX 9 16 0 -2
BITMAP
C000
C000
6000
6000
3000
3000
1800
1800
0C00
0C00
0600
0600
0300
0300
0180
0180
ENDCHAR
STARTCHAR RIGHT SQUARE BRACKET
ENCODING 93
SWIDTH 384 0
DWIDTH 8 0
BBX 6 20 1 -4
BITMAP
FC
FC
0C
0C
0C
0C
0C
0C
0C
0C
0C
0C
0C
0C
0C
0C
0C
0C
FC
FC
ENDCHAR
STARTCHAR CIRCUMFLEX ACCENT
ENCODING 94
SWIDTH 576 0
DWIDTH 12 0
BBX 10 5 1 9
BITMAP
0C00
1E00
3300
6180
C0C0
ENDCHAR
STARTCHAR LOW LINE
ENCODING 95
SWIDTH 576 0
DWIDTH 12 0
BBX 10 2 1 -2
BITMAP
FFC0
FFC0
ENDCHAR
STARTCHAR GRAVE ACCENT
ENCODING 96
SWIDTH 288 0
DWIDTH 6 0
BBX 4 6 1 8
BITMAP
C0
C0
C0
C0
70
30
ENDCHAR
STARTCHAR LATIN SMALL LETTER A
ENCODING 97
SWIDTH 576 0
DWIDTH 12 0
BBX 10 10 1 0
BITMAP
FFC0
FFC0
00C0
00C0
FFC0
FFC0
C0C0
C0C0
FFC0
FFC0
ENDCHAR
STARTCHAR LATIN SMALL LETTER B
ENCODING 98
SWIDTH 576 0
DWIDTH 12 0
BBX 10 14 1 0
BITMAP
C000
C000
C000
C000
FFC0
FFC0
C0C0
C0C0
C0C0
C0C0
C0C0
C0C0
FFC0
FFC0
ENDCHAR
STARTCHAR LATIN SMALL LETTER C
ENCODING 99
SWIDTH 576 0
DWIDTH 12 0
BBX 10 10 1 0
BITMAP
FFC0
FFC0
C000
C000
C000
C000
C000
C000
FFC0
FFC0
ENDCHAR
STARTCHAR LATIN SMALL LETTER D
ENCODING 100
SWIDTH 576 0
DWIDTH 12 0
BBX 10 14 1 0
BITMAP
00C0
00C0
00C0
00C0
FFC0
FFC0
C0C0
C0C0
C0C0
C0C0
C0C0
C0C0
FFC0
FFC0
ENDCHAR
STARTCHAR LATIN SMALL LETTER E
ENCODING 101
SWIDTH 576 0
DWIDTH 12 0
BBX 10 10 1 0
BITMAP
FFC0
FFC0
C0C0
C0C0
FFC0
FFC0
C000
C000
FFC0
FFC0
ENDCHAR
STARTCHAR LATIN SMALL LETTER F
ENCODING 102
SWIDTH 480 0
DWIDTH 10 0
BBX 8 14 1 0
BITMAP
3F
3F
30
30
FF
FF
30
30
30
30
30
30
30
30
ENDCHAR
STARTCHAR LATIN SMALL LETTER G
ENCODING 103
SWIDTH 576 0
DWIDTH 12 0
BBX 10 14 1 -4
BITMAP
FFC0
FFC0
C0C0
C0C0
C0C0
C0C0
C0C0
C0C0
FFC0
FFC0
00C0
00C0
FFC0
FFC0
ENDCHAR
STARTCHAR LATIN SMALL LETTER H
ENCODING 104
SWIDTH 576 0
DWIDTH 12 0
BBX 10 14 1 0
BITMAP
C000
C000
C000
C000
FFC0
FFC0
C0C0
C0C0
C0C0
C0C0
C0C0
C0C0
C0C0
C0C0
ENDCHAR
STARTCHAR LATIN SMALL LETTER I
ENCODING 105
SWIDTH 192 0
DWIDTH 4 0
BBX 2 14 1 0
BITMAP
C0
C0
00
00
C0
C0
C0
C0
C0
C0
C0
C0
C0
C0
ENDCHAR
STARTCHAR LATIN SMALL LETTER J
ENCODING 106
SWIDTH 336 0
DWIDTH 7 0
BBX 6 18 0 -4
BITMAP
0C
0C
00
00
0C
0C
0C
0C
0C
0C
0C
0C
0C
0C
0C
0C
FC
FC
ENDCHAR
STARTCHAR LATIN SMALL LETTER K
ENCODING 107
SWIDTH 576 0
DWIDTH 12 0
BBX 10 14 1 0
BITMAP
C000
C000
C000
C000
C0C0
C180
C300
C600
FC00
FC00
C600
C300
C180
C0C0
ENDCHAR
STARTCHAR LATIN SMALL LETTER L
ENCODING 108
SWIDTH 192 0
DWIDTH 4 0
BBX 2 14 1 0
BITMAP
C0
C0
C0
C0
C0
C0
C0
C0
C0
C0
C0
C0
C0
C0
ENDCHAR
STARTCHAR LATIN SMALL LETTER M
ENCODING 109
SWIDTH 768 0
DWIDTH 16 0
BBX 14 10 1 0
BITMAP
FFFC
FFFC
C30C
C30C
C30C
C30C
C30C
C30C
C30C
C30C
ENDCHAR
STARTCHAR LATIN SMALL LETTER N
ENCODING 110
SWIDTH 576 0
DWIDTH 12 0
BBX 10 10 1 0
BITMAP
FFC0
FFC0
C0C0
C0C0
C0C0
C0C0
C0C0
C0C0
C0C0
C0C0
ENDCHAR
STARTCHAR LATIN SMALL LETTER O
ENCODING 111
SWIDTH 576 0
DWIDTH 12 0
BBX 10 10 1 0
BITMAP
FFC0
FFC0
C0C0
C0C0
C0C0
C0C0
C0C0
C0C0
FFC0
FFC0
ENDCHAR
STARTCHAR LATIN SMALL LETTER P
ENCODING 112
SWIDTH 576 0
DWIDTH 12 0
BBX 10 14 1 -4
BITMAP
FFC0
FFC0
C0C0
C0C0
C0C0
C0C0
C0C0
C0C0
FFC0
FFC0
C000
C000
C000
C000
ENDCHAR
STARTCHAR LATIN SMALL LETTER Q
ENCODING 113
SWIDTH 576 0
DWIDTH 12 0
BBX 10 14 1 -4
BITMAP
FFC0
FFC0
C0C0
C0C0
C0C0
C0C0
C0C0
C0C0
FFC0
FFC0
00C0
00C0
00C0
00C0
ENDCHAR
STARTCHAR LATIN SMALL LETTER R
ENCODING 114
SWIDTH 480 0
DWIDTH 10 0
BBX 8 10 1 0
BITMAP
7F
FF
C0
C0
C0
C0
C0
C0
C0
C0
ENDCHAR
STARTCHAR LATIN SMALL LETTER S
ENCODING 115
SWIDTH 576 0
DWIDTH 12 0
BBX 10 10 1 0
BITMAP
FFC0
FFC0
C000
C000
FFC0
FFC0
00C0
00C0
FFC0
FFC0
ENDCHAR
STARTCHAR LATIN SMALL LETTER T
ENCODING 116
SWIDTH 384 0
DWIDTH 8 0
BBX 6 12 1 0
BITMAP
30
30
FC
FC
30
30
30
30
30
30
30
30
ENDCHAR
STARTCHAR LATIN SMALL LETTER U
ENCODING 117
SWIDTH 576 0
DWIDTH 12 0
BBX 10 10 1 0
BITMAP
C0C0
C0C0
C0C0
C0C0
C0C0
C0C0
C0C0
C0C0
FFC0
FFC0
ENDCHAR
STARTCHAR LATIN SMALL LETTER V
ENCODING 118
SWIDTH 576 0
DWIDTH 12 0
BBX 10 10 1 0
BITMAP
C0C0
C0C0
C0C0
C0C0
C0C0
C0C0
6180
3300
1E00
0C00
ENDCHAR
STARTCHAR LATIN SMALL LETTER W
ENCODING 119
SWIDTH 768 0
DWIDTH 16 0
BBX 14 10 1 0
BITMAP
C30C
C30C
C30C
C30C
C30C
C30C
C30C
C30C
FFFC
FFFC
ENDCHAR
STARTCHAR LATIN SMALL LETTER X
ENCODING 120
SWIDTH 576 0
DWIDTH 12 0
BBX 10 10 1 0
BITMAP
C0C0
6180
3300
1E00
0C00
0C00
1E00
3300
6180
C0C0
ENDCHAR
STARTCHAR LATIN SMALL LETTER Y
ENCODING 121
SWIDTH 576 0
DWIDTH 12 0
BBX 10 14 1 -4
BITMAP
C0C0
C0C0
C0C0
C0C0
C0C0
C0C0
C0C0
C0C0
FFC0
FFC0
00C0
00C0
FFC0
FFC0
ENDCHAR
STARTCHAR LATIN SMALL LETTER Z
ENCODING 122
SWIDTH 528 0
DWIDTH 11 0
BBX 9 10 1 0
BITMAP
FF80
FF80
0300
0600
0C00
1800
3000
6000
FF80
FF80
ENDCHAR
STARTCHAR LEFT CURLY BRACKET
ENCODING 123
SWIDTH 480 0
DWIDTH 10 0
BBX 8 20 1 -4
BITMAP
3F
3F
30
30
30
30
30
30
F0
F0
30
30
30
30
30
30
30
30
3F
3F
ENDCHAR
STARTCHAR VERTICAL LINE
ENCODING 124
SWIDTH 192 0
DWIDTH 4 0
BBX 2 18 1 -2
BITMAP
C0
C0
C0
C0
C0
C0
C0
C0
C0
C0
C0
C0
C0
C0
C0
C0
C0
C0
ENDCHAR
STARTCHAR RIGHT CURLY BRACKET
ENCODING 125
SWIDTH 480 0
DWIDTH 10 0
BBX 8 20 1 -4
BITMAP
FC
FC
0C
0C
0C
0C
0C
0C
0F
0F
0C
0C
0C
0C
0C
0C
0C
0C
FC
FC
ENDCHAR
STARTCHAR TILDE
ENCODING 126
SWIDTH 528 0
DWIDTH 11 0
BBX 9 4 1 8
BITMAP
3080
7980
CF00
8600
ENDCHAR
STARTCHAR INVERTED EXCLAMATION MARK
ENCODING 161
SWIDTH 192 0
DWIDTH 4 0
BBX 2 14 1 0
BITMAP
C0
C0
00
00
C0
C0
C0
C0
C0
C0
C0
C0
C0
C0
ENDCHAR
STARTCHAR CENT SIGN
ENCODING 162
SWIDTH 576 0
DWIDTH 12 0
BBX 10 14 1 -2
BITMAP
0C00
0C00
FFC0
FFC0
CC00
CC00
CC00
CC00
CC00
CC00
FFC0
FFC0
0C00
0C00
ENDCHAR
STARTCHAR POUND SIGN
ENCODING 163
SWIDTH 576 0
DWIDTH 12 0
BBX 10 12 1 0
BITMAP
1FC0
3FC0
3000
3000
FC00
FC00
3000
3000
3000
3000
7FC0
FFC0
ENDCHAR
STARTCHAR CURRENCY SIGN
ENCODING 164
SWIDTH 672 0
DWIDTH 14 0
BBX 12 14 1 0
BITMAP
1FF0
3FE0
3000
3000
FF00
FF00
3000
3000
FF00
FF00
3000
3000
3FE0
1FF0
ENDCHAR
STARTCHAR YEN SIGN
ENCODING 165
SWIDTH 576 0
DWIDTH 12 0
BBX 10 14 1 0
BITMAP
C0C0
C0C0
C0C0
C0C0
FFC0
FFC0
0C00
0C00
3F00
3F00
0C00
0C00
0C00
0C00
ENDCHAR
STARTCHAR BROKEN BAR
ENCODING 166
SWIDTH 576 0
DWIDTH 12 0
BBX 10 16 1 0
BITMAP
6180
3300
1E00
0C00
FFC0
FFC0
C000
C000
FFC0
FFC0
00C0
00C0
00C0
00C0
FFC0
FFC0
ENDCHAR
STARTCHAR SECTION SIGN
ENCODING 167
SWIDTH 576 0
DWIDTH 12 0
BBX 10 14 1 0
BITMAP
FFC0
FFC0
C000
C000
FFC0
FFC0
C0C0
C0C0
FFC0
FFC0
00C0
00C0
FFC0
FFC0
ENDCHAR
STARTCHAR DIAERESIS
ENCODING 168
SWIDTH 576 0
DWIDTH 12 0
BBX 10 16 1 0
BITMAP
6180
3300
1E00
0C00
0000
0000
FFC0
FFC0
C000
C000
FFC0
FFC0
00C0
00C0
FFC0
FFC0
ENDCHAR
STARTCHAR COPYRIGHT SIGN
ENCODING 169
SWIDTH 672 0
DWIDTH 14 0
BBX 12 14 1 0
BITMAP
FFF0
FFF0
C030
C030
CF30
CF30
CC30
CC30
CF30
CF30
C030
C030
FFF0
FFF0
ENDCHAR
STARTCHAR FEMININE ORDINAL INDICATOR
ENCODING 170
SWIDTH 576 0
DWIDTH 12 0
BBX 10 14 1 2
BITMAP
FFC0
FFC0
00C0
00C0
FFC0
FFC0
C0C0
C0C0
FFC0
FFC0
0000
0000
FFC0
FFC0
ENDCHAR
STARTCHAR LEFT-POINTING DOUBLE ANGLE QUOTATION MARK
ENCODING 171
SWIDTH 672 0
DWIDTH 14 0
BBX 14 14 0 0
BITMAP
030C
0618
0C30
1860
30C0
6180
C300
C300
6180
30C0
1860
0C30
0618
030C
ENDCHAR
STARTCHAR NOT SIGN
ENCODING 172
SWIDTH 576 0
DWIDTH 12 0
BBX 10 6 1 0
BITMAP
FFC0
FFC0
00C0
00C0
00C0
00C0
ENDCHAR
STARTCHAR SOFT HYPHEN
ENCODING 173
SWIDTH 576 0
DWIDTH 12 0
BBX 10 2 1 6
BITMAP
FFC0
FFC0
ENDCHAR
STARTCHAR REGISTERED SIGN
ENCODING 174
SWIDTH 672 0
DWIDTH 14 0
BBX 12 14 1 0
BITMAP
7FE0
FFF0
C030
C030
C730
CF30
CC30
CC30
CC30
CC30
C030
C030
FFF0
7FE0
ENDCHAR
STARTCHAR MACRON
ENCODING 175
SWIDTH 576 0
DWIDTH 12 0
BBX 10 2 1 10
BITMAP
FFC0
FFC0
ENDCHAR
STARTCHAR DEGREE SIGN
ENCODING 176
SWIDTH 384 0
DWIDTH 8 0
BBX 6 6 1 8
BITMAP
FC
FC
CC
CC
FC
FC
ENDCHAR
STARTCHAR PLUS-MINUS SIGN
ENCODING 177
SWIDTH 576 0
DWIDTH 12 0
BBX 10 14 1 2
BITMAP
0C00
0C00
0C00
0C00
FFC0
FFC0
0C00
0C00
0C00
0C00
0000
0000
FFC0
FFC0
ENDCHAR
STARTCHAR SUPERSCRIPT TWO
ENCODING 178
SWIDTH 480 0
DWIDTH 10 0
BBX 8 10 1 4
BITMAP
FF
FF
03
03
FF
FF
C0
C0
FF
FF
ENDCHAR
STARTCHAR SUPERSCRIPT THREE
ENCODING 179
SWIDTH 480 0
DWIDTH 10 0
BBX 8 10 1 4
BITMAP
FF
FF
03
03
FF
FF
03
03
FF
FF
ENDCHAR
STARTCHAR ACUTE ACCENT
ENCODING 180
SWIDTH 576 0
DWIDTH 12 0
BBX 10 16 1 0
BITMAP
6180
3300
1E00
0C00
FFC0
FFC0
0180
0300
0600
0C00
1800
3000
6000
C000
FFC0
FFC0
ENDCHAR
STARTCHAR MICRO SIGN
ENCODING 181
SWIDTH 480 0
DWIDTH 10 0
BBX 8 10 1 -2
BITMAP
C3
C3
C3
C3
C3
C3
FF
FF
C0
C0
ENDCHAR
STARTCHAR PILCROW SIGN
ENCODING 182
SWIDTH 528 0
DWIDTH 11 0
BBX 9 14 1 0
BITMAP
7F80
FF80
D980
D980
D980
D980
F980
F980
1980
1980
1980
1980
1F80
1F80
ENDCHAR
STARTCHAR MIDDLE DOT
ENCODING 183
SWIDTH 288 0
DWIDTH 6 0
BBX 4 2 1 6
BITMAP
F0
F0
ENDCHAR
STARTCHAR CEDILLA
ENCODING 184
SWIDTH 528 0
DWIDTH 11 0
BBX 9 15 1 0
BITMAP
C300
6600
3C00
1800
0000
FF80
FF80
0300
0600
0C00
1800
3000
6000
FF80
FF80
ENDCHAR
STARTCHAR SUPERSCRIPT ONE
ENCODING 185
SWIDTH 288 0
DWIDTH 6 0
BBX 4 8 1 6
BITMAP
F0
F0
30
30
30
30
30
30
ENDCHAR
STARTCHAR MASCULINE ORDINAL INDICATOR
ENCODING 186
SWIDTH 384 0
DWIDTH 8 0
BBX 6 10 1 4
BITMAP
FC
FC
CC
CC
FC
FC
00
00
FC
FC
ENDCHAR
STARTCHAR RIGHT-POINTING DOUBLE ANGLE QUOTATION MARK
ENCODING 187
SWIDTH 672 0
DWIDTH 14 0
BBX 14 14 0 0
BITMAP
C300
6180
30C0
1860
0C30
0618
030C
030C
0618
0C30
1860
30C0
6180
C300
ENDCHAR
STARTCHAR VULGAR FRACTION ONE QUARTER
ENCODING 188
SWIDTH 768 0
DWIDTH 16 0
BBX 14 12 1 0
BITMAP
FFFC
FFFC
C300
C300
C3FC
C3FC
C300
C300
C300
C300
FFFC
FFFC
ENDCHAR
STARTCHAR VULGAR FRACTION ONE HALF
ENCODING 189
SWIDTH 768 0
DWIDTH 16 0
BBX 14 10 1 0
BITMAP
FFFC
FFFC
C30C
C30C
C3FC
C3FC
C300
C300
FFFC
FFFC
ENDCHAR
STARTCHAR VULGAR FRACTION THREE QUARTERS
ENCODING 190
SWIDTH 576 0
DWIDTH 12 0
BBX 10 16 1 0
BITMAP
3300
3300
0000
0000
C0C0
C0C0
C0C0
C0C0
FFC0
FFC0
0C00
0C00
0C00
0C00
0C00
0C00
ENDCHAR
STARTCHAR INVERTED QUESTION MARK
ENCODING 191
SWIDTH 480 0
DWIDTH 10 0
BBX 8 12 1 0
BITMAP
0C
0C
00
00
0C
0C
FC
FC
C0
C0
FF
FF
ENDCHAR
STARTCHAR LATIN CAPITAL LETTER A WITH GRAVE
ENCODING 192
SWIDTH 576 0
DWIDTH 12 0
BBX 10 16 1 0
BITMAP
3000
1800
0C00
0600
0000
0000
FFC0
FFC0
C0C0
C0C0
FFC0
FFC0
C0C0
C0C0
C0C0
C0C0
ENDCHAR
STARTCHAR LATIN CAPITAL LETTER A WITH ACUTE
ENCODING 193
SWIDTH 576 0
DWIDTH 12 0
BBX 10 16 1 0
BITMAP
0300
0600
0C00
1800
0000
0000
FFC0
FFC0
C0C0
C0C0
FFC0
FFC0
C0C0
C0C0
C0C0
C0C0
ENDCHAR
STARTCHAR LATIN CAPITAL LETTER A WITH CIRCUMFLEX
ENCODING 194
SWIDTH 576 0
DWIDTH 12 0
BBX 10 15 1 0
BITMAP
0C00
1E00
3300
0000
0000
FFC0
FFC0
C0C0
C0C0
FFC0
FFC0
C0C0
C0C0
C0C0
C0C0
ENDCHAR
STARTCHAR LATIN CAPITAL LETTER A WITH TILDE
ENCODING 195
SWIDTH 576 0
DWIDTH 12 0
BBX 10 16 1 0
BITMAP
3080
7980
CF00
8600
0000
0000
FFC0
FFC0
C0C0
C0C0
FFC0
FFC0
C0C0
C0C0
C0C0
C0C0
ENDCHAR
STARTCHAR LATIN CAPITAL LETTER A WITH DIAERESIS
ENCODING 196
SWIDTH 576 0
DWIDTH 12 0
BBX 10 16 1 0
BITMAP
3300
3300
0000
0000
FFC0
FFC0
C0C0
C0C0
FFC0
FFC0
C0C0
C0C0
C0C0
C0C0
C0C0
C0C0
ENDCHAR
STARTCHAR LATIN CAPITAL LETTER A WITH RING ABOVE
ENCODING 197
SWIDTH 576 0
DWIDTH 12 0
BBX 10 16 1 0
BITMAP
0C00
0C00
0000
0000
FFC0
FFC0
C0C0
C0C0
FFC0
FFC0
C0C0
C0C0
C0C0
C0C0
C0C0
C0C0
ENDCHAR
STARTCHAR LATIN CAPITAL LETTER AE
ENCODING 198
SWIDTH 768 0
DWIDTH 16 0
BBX 14 12 1 0
BITMAP
FFFC
FFFC
C300
C300
FFFC
FFFC
C300
C300
C300
C300
C3FC
C3FC
ENDCHAR
STARTCHAR LATIN CAPITAL LETTER C WITH CEDILLA
ENCODING 199
SWIDTH 576 0
DWIDTH 12 0
BBX 10 16 1 -4
BITMAP
FFC0
FFC0
C000
C000
C000
C000
C000
C000
C000
C000
FFC0
FFC0
0C00
0C00
1800
3000
ENDCHAR
STARTCHAR LATIN CAPITAL LETTER E WITH GRAVE
ENCODING 200
SWIDTH 528 0
DWIDTH 11 0
BBX 8 16 1 0
BITMAP
60
30
18
00
FF
FF
C0
C0
FF
FF
C0
C0
C0
C0
FF
FF
ENDCHAR
STARTCHAR LATIN CAPITAL LETTER E WITH ACUTE
ENCODING 201
SWIDTH 528 0
DWIDTH 11 0
BBX 8 16 1 0
BITMAP
0C
18
30
00
FF
FF
C0
C0
FF
FF
C0
C0
C0
C0
FF
FF
ENDCHAR
STARTCHAR LATIN CAPITAL LETTER E WITH CIRCUMFLEX
ENCODING 202
SWIDTH 528 0
DWIDTH 11 0
BBX 9 16 1 0
BITMAP
3080
7980
CF00
8600
0000
FF80
FF80
C000
C000
FF80
FF80
C000
C000
C000
FF80
FF80
ENDCHAR
STARTCHAR LATIN CAPITAL LETTER E WITH DIAERESIS
ENCODING 203
SWIDTH 480 0
DWIDTH 10 0
BBX 8 16 1 0
BITMAP
33
33
00
00
FF
FF
C0
C0
FF
FF
C0
C0
C0
C0
FF
FF
ENDCHAR
STARTCHAR LATIN CAPITAL LETTER I WITH GRAVE
ENCODING 204
SWIDTH 288 0
DWIDTH 6 0
BBX 4 16 1 0
BITMAP
C0
60
30
00
60
60
60
60
60
60
60
60
60
60
60
60
ENDCHAR
STARTCHAR LATIN CAPITAL LETTER I WITH ACUTE
ENCODING 205
SWIDTH 288 0
DWIDTH 6 0
BBX 4 16 1 0
BITMAP
30
60
C0
00
60
60
60
60
60
60
60
60
60
60
60
60
ENDCHAR
STARTCHAR LATIN CAPITAL LETTER I WITH CIRCUMFLEX
ENCODING 206
SWIDTH 384 0
DWIDTH 8 0
BBX 6 16 1 0
BITMAP
30
78
CC
00
30
30
30
30
30
30
30
30
30
30
30
30
ENDCHAR
STARTCHAR LATIN CAPITAL LETTER I WITH DIAERESIS
ENCODING 207
SWIDTH 384 0
DWIDTH 8 0
BBX 6 16 1 0
BITMAP
CC
CC
00
00
30
30
30
30
30
30
30
30
30
30
30
30
ENDCHAR
STARTCHAR LATIN CAPITAL LETTER ETH
ENCODING 208
SWIDTH 672 0
DWIDTH 14 0
BBX 12 12 1 0
BITMAP
3FC0
3FE0
3030
3030
3030
3030
FC30
FC30
3030
3030
3FE0
3FC0
ENDCHAR
STARTCHAR LATIN CAPITAL LETTER N WITH TILDE
ENCODING 209
SWIDTH 576 0
DWIDTH 12 0
BBX 10 16 1 0
BITMAP
3080
7980
CF00
8600
0000
0000
FFC0
FFC0
C0C0
C0C0
C0C0
C0C0
C0C0
C0C0
C0C0
C0C0
ENDCHAR
STARTCHAR LATIN CAPITAL LETTER O WITH GRAVE
ENCODING 210
SWIDTH 576 0
DWIDTH 12 0
BBX 10 16 1 0
BITMAP
3000
1800
0C00
0000
FFC0
FFC0
C0C0
C0C0
C0C0
C0C0
C0C0
C0C0
C0C0
C0C0
FFC0
FFC0
ENDCHAR
STARTCHAR LATIN CAPITAL LETTER O WITH ACUTE
ENCODING 211
SWIDTH 576 0
DWIDTH 12 0
BBX 10 16 1 0
BITMAP
0300
0600
0C00
0000
FFC0
FFC0
C0C0
C0C0
C0C0
C0C0
C0C0
C0C0
C0C0
C0C0
FFC0
FFC0
ENDCHAR
STARTCHAR LATIN CAPITAL LETTER O WITH CIRCUMFLEX
ENCODING 212
SWIDTH 576 0
DWIDTH 12 0
BBX 10 15 1 0
BITMAP
0C00
1E00
3300
0000
0000
FFC0
FFC0
C0C0
C0C0
C0C0
C0C0
C0C0
C0C0
FFC0
FFC0
ENDCHAR
STARTCHAR LATIN CAPITAL LETTER O WITH TILDE
ENCODING 213
SWIDTH 576 0
DWIDTH 12 0
BBX 10 16 1 0
BITMAP
3080
7980
CF00
8600
0000
0000
FFC0
FFC0
C0C0
C0C0
C0C0
C0C0
C0C0
C0C0
FFC0
FFC0
ENDCHAR
STARTCHAR LATIN CAPITAL LETTER O WITH DIAERESIS
ENCODING 214
SWIDTH 576 0
DWIDTH 12 0
BBX 10 16 1 0
BITMAP
3300
3300
0000
0000
FFC0
FFC0
C0C0
C0C0
C0C0
C0C0
C0C0
C0C0
C0C0
C0C0
FFC0
FFC0
ENDCHAR
STARTCHAR MULTIPLICATION SIGN
ENCODING 215
SWIDTH 384 0
DWIDTH 8 0
BBX 6 5 1 5
BITMAP
CC
78
30
78
CC
ENDCHAR
STARTCHAR LATIN CAPITAL LETTER O WITH STROKE
ENCODING 216
SWIDTH 576 0
DWIDTH 12 0
BBX 10 16 1 -2
BITMAP
0300
0300
FFC0
FFC0
CCC0
CCC0
CCC0
CCC0
CCC0
CCC0
CCC0
CCC0
FFC0
FFC0
3000
3000
ENDCHAR
STARTCHAR LATIN CAPITAL LETTER U WITH GRAVE
ENCODING 217
SWIDTH 576 0
DWIDTH 12 0
BBX 10 16 1 0
BITMAP
3000
1800
0C00
0600
C0C0
C0C0
C0C0
C0C0
C0C0
C0C0
C0C0
C0C0
C0C0
C0C0
FFC0
FFC0
ENDCHAR
STARTCHAR LATIN CAPITAL LETTER U WITH ACUTE
ENCODING 218
SWIDTH 576 0
DWIDTH 12 0
BBX 10 16 1 0
BITMAP
0300
0600
0C00
1800
C0C0
C0C0
C0C0
C0C0
C0C0
C0C0
C0C0
C0C0
C0C0
C0C0
FFC0
FFC0
ENDCHAR
STARTCHAR LATIN CAPITAL LETTER U WITH CIRCUMFLEX
ENCODING 219
SWIDTH 576 0
DWIDTH 12 0
BBX 10 15 1 0
BITMAP
0C00
1E00
3300
0000
0000
C0C0
C0C0
C0C0
C0C0
C0C0
C0C0
C0C0
C0C0
FFC0
FFC0
ENDCHAR
STARTCHAR LATIN CAPITAL LETTER U WITH DIAERESIS
ENCODING 220
SWIDTH 576 0
DWIDTH 12 0
BBX 10 16 1 0
BITMAP
3300
3300
0000
0000
C0C0
C0C0
C0C0
C0C0
C0C0
C0C0
C0C0
C0C0
C0C0
C0C0
FFC0
FFC0
ENDCHAR
STARTCHAR LATIN CAPITAL LETTER Y WITH ACUTE
ENCODING 221
SWIDTH 576 0
DWIDTH 12 0
BBX 10 16 1 0
BITMAP
0300
0600
0C00
1800
C0C0
C0C0
C0C0
C0C0
FFC0
FFC0
0C00
0C00
0C00
0C00
0C00
0C00
ENDCHAR
STARTCHAR LATIN CAPITAL LETTER THORN
ENCODING 222
SWIDTH 480 0
DWIDTH 10 0
BBX 8 14 1 0
BITMAP
C0
C0
C0
C0
FF
FF
C3
C3
FF
FF
C0
C0
C0
C0
ENDCHAR
STARTCHAR LATIN SMALL LETTER SHARP S
ENCODING 223
SWIDTH 480 0
DWIDTH 10 0
BBX 8 16 1 -2
BITMAP
FF
FF
C3
C3
C3
C3
FF
FF
C3
C3
C3
C3
FF
FF
C0
C0
ENDCHAR
STARTCHAR LATIN SMALL LETTER A WITH GRAVE
ENCODING 224
SWIDTH 576 0
DWIDTH 12 0
BBX 10 16 1 0
BITMAP
3000
1800
0C00
0600
0000
0000
FFC0
FFC0
00C0
00C0
FFC0
FFC0
C0C0
C0C0
FFC0
FFC0
ENDCHAR
STARTCHAR LATIN SMALL LETTER A WITH ACUTE
ENCODING 225
SWIDTH 576 0
DWIDTH 12 0
BBX 10 16 1 0
BITMAP
0300
0600
0C00
1800
0000
0000
FFC0
FFC0
00C0
00C0
FFC0
FFC0
C0C0
C0C0
FFC0
FFC0
ENDCHAR
STARTCHAR LATIN SMALL LETTER A WITH CIRCUMFLEX
ENCODING 226
SWIDTH 576 0
DWIDTH 12 0
BBX 10 16 1 0
BITMAP
0C00
1E00
3300
6180
0000
0000
FFC0
FFC0
00C0
00C0
FFC0
FFC0
C0C0
C0C0
FFC0
FFC0
ENDCHAR
STARTCHAR LATIN SMALL LETTER A WITH TILDE
ENCODING 227
SWIDTH 576 0
DWIDTH 12 0
BBX 10 16 1 0
BITMAP
3080
7980
CF00
8600
0000
0000
FFC0
FFC0
00C0
00C0
FFC0
FFC0
C0C0
C0C0
FFC0
FFC0
ENDCHAR
STARTCHAR LATIN SMALL LETTER A WITH DIAERESIS
ENCODING 228
SWIDTH 576 0
DWIDTH 12 0
BBX 10 14 1 0
BITMAP
3300
3300
0000
0000
FFC0
FFC0
00C0
00C0
FFC0
FFC0
C0C0
C0C0
FFC0
FFC0
ENDCHAR
STARTCHAR LATIN SMALL LETTER A WITH RING ABOVE
ENCODING 229
SWIDTH 576 0
DWIDTH 12 0
BBX 10 14 1 0
BITMAP
0C00
0C00
0000
0000
FFC0
FFC0
00C0
00C0
FFC0
FFC0
C0C0
C0C0
FFC0
FFC0
ENDCHAR
STARTCHAR LATIN SMALL LETTER AE
ENCODING 230
SWIDTH 768 0
DWIDTH 16 0
BBX 14 10 1 0
BITMAP
FFFC
FFFC
C30C
C30C
FFFC
FFFC
C300
C300
C3FC
C3FC
ENDCHAR
STARTCHAR LATIN SMALL LETTER C WITH CEDILLA
ENCODING 231
SWIDTH 576 0
DWIDTH 12 0
BBX 10 14 1 -4
BITMAP
FFC0
FFC0
C000
C000
C000
C000
C000
C000
FFC0
FFC0
0C00
0C00
1800
3000
ENDCHAR
STARTCHAR LATIN SMALL LETTER E WITH GRAVE
ENCODING 232
SWIDTH 576 0
DWIDTH 12 0
BBX 10 16 1 0
BITMAP
6000
3000
1800
0C00
0000
0000
FFC0
FFC0
C0C0
C0C0
FFC0
FFC0
C000
C000
FFC0
FFC0
ENDCHAR
STARTCHAR LATIN SMALL LETTER E WITH ACUTE
ENCODING 233
SWIDTH 576 0
DWIDTH 12 0
BBX 10 16 1 0
BITMAP
0300
0600
0C00
1800
0000
0000
FFC0
FFC0
C0C0
C0C0
FFC0
FFC0
C000
C000
FFC0
FFC0
ENDCHAR
STARTCHAR LATIN SMALL LETTER E WITH CIRCUMFLEX
ENCODING 234
SWIDTH 576 0
DWIDTH 12 0
BBX 10 15 1 0
BITMAP
0C00
1E00
3300
0000
0000
FFC0
FFC0
C0C0
C0C0
FFC0
FFC0
C000
C000
FFC0
FFC0
ENDCHAR
STARTCHAR LATIN SMALL LETTER E WITH DIAERESIS
ENCODING 235
SWIDTH 576 0
DWIDTH 12 0
BBX 10 14 1 0
BITMAP
3300
3300
0000
0000
FFC0
FFC0
C0C0
C0C0
FFC0
FFC0
C000
C000
FFC0
FFC0
ENDCHAR
STARTCHAR LATIN SMALL LETTER I WITH GRAVE
ENCODING 236
SWIDTH 288 0
DWIDTH 6 0
BBX 4 15 1 0
BITMAP
C0
60
30
00
00
60
60
60
60
60
60
60
60
60
60
ENDCHAR
STARTCHAR LATIN SMALL LETTER I WITH ACUTE
ENCODING 237
SWIDTH 288 0
DWIDTH 6 0
BBX 4 15 1 0
BITMAP
30
60
C0
00
00
60
60
60
60
60
60
60
60
60
60
ENDCHAR
STARTCHAR LATIN SMALL LETTER I WITH CIRCUMFLEX
ENCODING 238
SWIDTH 384 0
DWIDTH 8 0
BBX 6 15 1 0
BITMAP
30
78
CC
00
00
30
30
30
30
30
30
30
30
30
30
ENDCHAR
STARTCHAR LATIN SMALL LETTER I WITH DIAERESIS
ENCODING 239
SWIDTH 384 0
DWIDTH 8 0
BBX 6 14 1 0
BITMAP
CC
CC
00
00
30
30
30
30
30
30
30
30
30
30
ENDCHAR
STARTCHAR LATIN SMALL LETTER ETH
ENCODING 240
SWIDTH 576 0
DWIDTH 12 0
BBX 10 15 1 0
BITMAP
3300
1E00
0C00
1E00
3300
0180
00C0
FFC0
FFC0
C0C0
C0C0
C0C0
C0C0
FFC0
FFC0
ENDCHAR
STARTCHAR LATIN SMALL LETTER N WITH TILDE
ENCODING 241
SWIDTH 576 0
DWIDTH 12 0
BBX 10 16 1 0
BITMAP
3080
7980
CF00
8600
0000
0000
FFC0
FFC0
C0C0
C0C0
C0C0
C0C0
C0C0
C0C0
C0C0
C0C0
ENDCHAR
STARTCHAR LATIN SMALL LETTER O WITH GRAVE
ENCODING 242
SWIDTH 576 0
DWIDTH 12 0
BBX 10 16 1 0
BITMAP
3000
1800
0C00
0600
0000
0000
FFC0
FFC0
C0C0
C0C0
C0C0
C0C0
C0C0
C0C0
FFC0
FFC0
ENDCHAR
STARTCHAR LATIN SMALL LETTER O WITH ACUTE
ENCODING 243
SWIDTH 576 0
DWIDTH 12 0
BBX 10 16 1 0
BITMAP
0300
0600
0C00
1800
0000
0000
FFC0
FFC0
C0C0
C0C0
C0C0
C0C0
C0C0
C0C0
FFC0
FFC0
ENDCHAR
STARTCHAR LATIN SMALL LETTER O WITH CIRCUMFLEX
ENCODING 244
SWIDTH 576 0
DWIDTH 12 0
BBX 10 15 1 0
BITMAP
0C00
1E00
3300
0000
0000
FFC0
FFC0
C0C0
C0C0
C0C0
C0C0
C0C0
C0C0
FFC0
FFC0
ENDCHAR
STARTCHAR LATIN SMALL LETTER O WITH TILDE
ENCODING 245
SWIDTH 576 0
DWIDTH 12 0
BBX 10 16 1 0
BITMAP
3080
7980
CF00
8600
0000
0000
FFC0
FFC0
C0C0
C0C0
C0C0
C0C0
C0C0
C0C0
FFC0
FFC0
ENDCHAR
STARTCHAR LATIN SMALL LETTER O WITH DIAERESIS
ENCODING 246
SWIDTH 576 0
DWIDTH 12 0
BBX 10 14 1 0
BITMAP
3300
3300
0000
0000
FFC0
FFC0
C0C0
C0C0
C0C0
C0C0
C0C0
C0C0
FFC0
FFC0
ENDCHAR
STARTCHAR DIVISION SIGN
ENCODING 247
SWIDTH 576 0
DWIDTH 12 0
BBX 10 10 1 2
BITMAP
0C00
0C00
0000
0000
FFC0
FFC0
0000
0000
0C00
0C00
ENDCHAR
STARTCHAR LATIN SMALL LETTER O WITH STROKE
ENCODING 248
SWIDTH 576 0
DWIDTH 12 0
BBX 10 14 1 -2
BITMAP
0300
0300
FFC0
FFC0
CCC0
CCC0
CCC0
CCC0
CCC0
CCC0
FFC0
FFC0
3000
3000
ENDCHAR
STARTCHAR LATIN SMALL LETTER U WITH GRAVE
ENCODING 249
SWIDTH 576 0
DWIDTH 12 0
BBX 10 14 1 0
BITMAP
3000
1800
0C00
0600
C0C0
C0C0
C0C0
C0C0
C0C0
C0C0
C0C0
C0C0
FFC0
FFC0
ENDCHAR
STARTCHAR LATIN SMALL LETTER U WITH ACUTE
ENCODING 250
SWIDTH 576 0
DWIDTH 12 0
BBX 10 14 1 0
BITMAP
0300
0600
0C00
1800
C0C0
C0C0
C0C0
C0C0
C0C0
C0C0
C0C0
C0C0
FFC0
FFC0
ENDCHAR
STARTCHAR LATIN SMALL LETTER U WITH CIRCUMFLEX
ENCODING 251
SWIDTH 576 0
DWIDTH 12 0
BBX 10 15 1 0
BITMAP
0C00
1E00
3300
0000
0000
C0C0
C0C0
C0C0
C0C0
C0C0
C0C0
C0C0
C0C0
FFC0
FFC0
ENDCHAR
STARTCHAR LATIN SMALL LETTER U WITH DIAERESIS
ENCODING 252
SWIDTH 576 0
DWIDTH 12 0
BBX 10 14 1 0
BITMAP
3300
3300
0000
0000
C0C0
C0C0
C0C0
C0C0
C0C0
C0C0
C0C0
C0C0
FFC0
FFC0
ENDCHAR
STARTCHAR LATIN SMALL LETTER Y WITH ACUTE
ENCODING 253
SWIDTH 576 0
DWIDTH 12 0
BBX 10 20 1 -4
BITMAP
0300
0600
0C00
1800
0000
0000
C0C0
C0C0
C0C0
C0C0
C0C0
C0C0
C0C0
C0C0
FFC0
FFC0
00C0
00C0
FFC0
FFC0
ENDCHAR
STARTCHAR LATIN SMALL LETTER THORN
ENCODING 254
SWIDTH 576 0
DWIDTH 12 0
BBX 10 14 1 0
BITMAP
C000
C000
C000
C000
FF00
FF80
C0C0
C0C0
FF80
FF00
C000
C000
C000
C000
ENDCHAR
STARTCHAR LATIN SMALL LETTER Y WITH DIAERESIS
ENCODING 255
SWIDTH 576 0
DWIDTH 12 0
BBX 10 18 1 -4
BITMAP
3300
3300
0000
0000
C0C0
C0C0
C0C0
C0C0
C0C0
C0C0
C0C0
C0C0
FFC0
FFC0
00C0
00C0
FFC0
FFC0
ENDCHAR
STARTCHAR CYRILLIC CAPITAL LETTER IO
ENCODING 1025
SWIDTH 576 0
DWIDTH 12 0
BBX 8 16 2 0
BITMAP
33
33
00
00
FF
FF
C0
C0
FF
FF
C0
C0
C0
C0
FF
FF
ENDCHAR
STARTCHAR CYRILLIC CAPITAL LETTER A
ENCODING 1040
SWIDTH 672 0
DWIDTH 14 0
BBX 10 12 2 0
BITMAP
FFC0
FFC0
C0C0
C0C0
FFC0
FFC0
C0C0
C0C0
C0C0
C0C0
C0C0
C0C0
ENDCHAR
STARTCHAR CYRILLIC CAPITAL LETTER BE
ENCODING 1041
SWIDTH 672 0
DWIDTH 14 0
BBX 10 12 2 0
BITMAP
FFC0
FFC0
C000
C000
C000
C000
FFC0
FFC0
C0C0
C0C0
FFC0
FFC0
ENDCHAR
STARTCHAR CYRILLIC CAPITAL LETTER VE
ENCODING 1042
SWIDTH 672 0
DWIDTH 14 0
BBX 10 12 2 0
BITMAP
FFC0
FFC0
C0C0
C0C0
FF00
FF00
C0C0
C0C0
C0C0
C0C0
FFC0
FFC0
ENDCHAR
STARTCHAR CYRILLIC CAPITAL LETTER GHE
ENCODING 1043
SWIDTH 576 0
DWIDTH 12 0
BBX 8 12 2 0
BITMAP
FF
FF
C0
C0
C0
C0
C0
C0
C0
C0
C0
C0
ENDCHAR
STARTCHAR CYRILLIC CAPITAL LETTER DE
ENCODING 1044
SWIDTH 864 0
DWIDTH 18 0
BBX 14 16 2 -4
BITMAP
3FF0
3FF0
3030
3030
3030
3030
3030
3030
3030
3030
FFFC
FFFC
C00C
C00C
C00C
C00C
ENDCHAR
STARTCHAR CYRILLIC CAPITAL LETTER IE
ENCODING 1045
SWIDTH 576 0
DWIDTH 12 0
BBX 8 12 2 0
BITMAP
FF
FF
C0
C0
FF
FF
C0
C0
C0
C0
FF
FF
ENDCHAR
STARTCHAR CYRILLIC CAPITAL LETTER ZHE
ENCODING 1046
SWIDTH 672 0
DWIDTH 14 0
BBX 10 12 2 0
BITMAP
CCC0
CCC0
EDC0
7F80
3F00
1E00
1E00
3F00
7F80
EDC0
CCC0
CCC0
ENDCHAR
STARTCHAR CYRILLIC CAPITAL LETTER ZE
ENCODING 1047
SWIDTH 672 0
DWIDTH 14 0
BBX 10 12 2 0
BITMAP
FFC0
FFC0
00C0
00C0
0FC0
0FC0
00C0
00C0
00C0
00C0
FFC0
FFC0
ENDCHAR
STARTCHAR CYRILLIC CAPITAL LETTER I
ENCODING 1048
SWIDTH 768 0
DWIDTH 16 0
BBX 12 12 2 0
BITMAP
C030
C070
C0F0
C1F0
C3B0
C730
CE30
DC30
F830
F030
E030
C030
ENDCHAR
STARTCHAR CYRILLIC CAPITAL LETTER SHORT I
ENCODING 1049
SWIDTH 768 0
DWIDTH 16 0
BBX 12 14 2 0
BITMAP
0F00
0F00
C030
C070
C0F0
C1F0
C3B0
C730
CE30
DC30
F830
F030
E030
C030
ENDCHAR
STARTCHAR CYRILLIC CAPITAL LETTER KA
ENCODING 1050
SWIDTH 672 0
DWIDTH 14 0
BBX 10 12 2 0
BITMAP
C0C0
C1C0
C380
C700
FE00
FE00
C700
C380
C1C0
C0C0
C0C0
C0C0
ENDCHAR
STARTCHAR CYRILLIC CAPITAL LETTER EL
ENCODING 1051
SWIDTH 672 0
DWIDTH 14 0
BBX 10 12 2 0
BITMAP
0FC0
1FC0
38C0
70C0
E0C0
C0C0
C0C0
C0C0
C0C0
C0C0
C0C0
C0C0
ENDCHAR
STARTCHAR CYRILLIC CAPITAL LETTER EM
ENCODING 1052
SWIDTH 672 0
DWIDTH 14 0
BBX 10 12 2 0
BITMAP
C0C0
E1C0
F3C0
FFC0
DEC0
CCC0
C0C0
C0C0
C0C0
C0C0
C0C0
C0C0
ENDCHAR
STARTCHAR CYRILLIC CAPITAL LETTER EN
ENCODING 1053
SWIDTH 672 0
DWIDTH 14 0
BBX 10 12 2 0
BITMAP
C0C0
C0C0
C0C0
C0C0
FFC0
FFC0
C0C0
C0C0
C0C0
C0C0
C0C0
C0C0
ENDCHAR
STARTCHAR CYRILLIC CAPITAL LETTER O
ENCODING 1054
SWIDTH 672 0
DWIDTH 14 0
BBX 10 12 2 0
BITMAP
FFC0
FFC0
C0C0
C0C0
C0C0
C0C0
C0C0
C0C0
C0C0
C0C0
FFC0
FFC0
ENDCHAR
STARTCHAR CYRILLIC CAPITAL LETTER PE
ENCODING 1055
SWIDTH 672 0
DWIDTH 14 0
BBX 10 12 2 0
BITMAP
FFC0
FFC0
C0C0
C0C0
C0C0
C0C0
C0C0
C0C0
C0C0
C0C0
C0C0
C0C0
ENDCHAR
STARTCHAR CYRILLIC CAPITAL LETTER ER
ENCODING 1056
SWIDTH 672 0
DWIDTH 14 0
BBX 10 12 2 0
BITMAP
FFC0
FFC0
C0C0
C0C0
FFC0
FFC0
C000
C000
C000
C000
C000
C000
ENDCHAR
STARTCHAR CYRILLIC CAPITAL LETTER ES
ENCODING 1057
SWIDTH 576 0
DWIDTH 12 0
BBX 8 12 2 0
BITMAP
FF
FF
C0
C0
C0
C0
C0
C0
C0
C0
FF
FF
ENDCHAR
STARTCHAR CYRILLIC CAPITAL LETTER TE
ENCODING 1058
SWIDTH 672 0
DWIDTH 14 0
BBX 10 12 2 0
BITMAP
FFC0
FFC0
0C00
0C00
0C00
0C00
0C00
0C00
0C00
0C00
0C00
0C00
ENDCHAR
STARTCHAR CYRILLIC CAPITAL LETTER U
ENCODING 1059
SWIDTH 672 0
DWIDTH 14 0
BBX 10 12 2 0
BITMAP
C0C0
C0C0
C0C0
C0C0
FFC0
FFC0
00C0
00C0
00C0
00C0
FFC0
FFC0
ENDCHAR
STARTCHAR CYRILLIC CAPITAL LETTER EF
ENCODING 1060
SWIDTH 672 0
DWIDTH 14 0
BBX 10 12 2 0
BITMAP
FFC0
FFC0
CCC0
CCC0
CCC0
CCC0
FFC0
FFC0
0C00
0C00
0C00
0C00
ENDCHAR
STARTCHAR CYRILLIC CAPITAL LETTER HA
ENCODING 1061
SWIDTH 672 0
DWIDTH 14 0
BBX 10 12 2 0
BITMAP
C0C0
E1C0
7380
3F00
1E00
1E00
3F00
7380
E1C0
C0C0
C0C0
C0C0
ENDCHAR
STARTCHAR CYRILLIC CAPITAL LETTER TSE
ENCODING 1062
SWIDTH 672 0
DWIDTH 14 0
BBX 12 14 2 -2
BITMAP
C0C0
C0C0
C0C0
C0C0
C0C0
C0C0
C0C0
C0C0
C0C0
C0C0
FFF0
FFF0
0030
0030
ENDCHAR
STARTCHAR CYRILLIC CAPITAL LETTER CHE
ENCODING 1063
SWIDTH 672 0
DWIDTH 14 0
BBX 10 12 2 0
BITMAP
C0C0
C0C0
C0C0
C0C0
FFC0
FFC0
00C0
00C0
00C0
00C0
00C0
00C0
ENDCHAR
STARTCHAR CYRILLIC CAPITAL LETTER SHA
ENCODING 1064
SWIDTH 672 0
DWIDTH 14 0
BBX 10 12 2 0
BITMAP
C0C0
C0C0
C0C0
C0C0
C0C0
C0C0
CCC0
CCC0
CCC0
CCC0
FFC0
FFC0
ENDCHAR
STARTCHAR CYRILLIC CAPITAL LETTER SHCHA
ENCODING 1065
SWIDTH 672 0
DWIDTH 14 0
BBX 12 14 2 -2
BITMAP
C0C0
C0C0
C0C0
C0C0
C0C0
C0C0
CCC0
CCC0
CCC0
CCC0
FFF0
FFF0
0030
0030
ENDCHAR
STARTCHAR CYRILLIC CAPITAL LETTER HARD SIGN
ENCODING 1066
SWIDTH 672 0
DWIDTH 14 0
BBX 12 12 0 0
BITMAP
F000
F000
3000
3000
3000
3000
3FF0
3FF0
3030
3030
3FF0
3FF0
ENDCHAR
STARTCHAR CYRILLIC CAPITAL LETTER YERU
ENCODING 1067
SWIDTH 768 0
DWIDTH 16 0
BBX 12 12 2 0
BITMAP
C030
C030
C030
C030
FF30
FF30
C330
C330
C330
C330
FF30
FF30
ENDCHAR
STARTCHAR CYRILLIC CAPITAL LETTER SOFT SIGN
ENCODING 1068
SWIDTH 672 0
DWIDTH 14 0
BBX 10 12 2 0
BITMAP
C000
C000
C000
C000
FFC0
FFC0
C0C0
C0C0
C0C0
C0C0
FFC0
FFC0
ENDCHAR
STARTCHAR CYRILLIC CAPITAL LETTER E
ENCODING 1069
SWIDTH 672 0
DWIDTH 14 0
BBX 10 12 2 0
BITMAP
FFC0
FFC0
00C0
00C0
FFC0
FFC0
00C0
00C0
00C0
00C0
FFC0
FFC0
ENDCHAR
STARTCHAR CYRILLIC CAPITAL LETTER YU
ENCODING 1070
SWIDTH 768 0
DWIDTH 16 0
BBX 12 12 2 0
BITMAP
C3F0
C3F0
C330
C330
FF30
FF30
C330
C330
C330
C330
C3F0
C3F0
ENDCHAR
STARTCHAR CYRILLIC CAPITAL LETTER YA
ENCODING 1071
SWIDTH 576 0
DWIDTH 12 0
BBX 8 12 2 0
BITMAP
FF
FF
C3
C3
FF
FF
0F
1F
3B
73
E3
C3
ENDCHAR
STARTCHAR CYRILLIC SMALL LETTER A
ENCODING 1072
SWIDTH 672 0
DWIDTH 14 0
BBX 10 10 2 0
BITMAP
FFC0
FFC0
00C0
00C0
FFC0
FFC0
C0C0
C0C0
FFC0
FFC0
ENDCHAR
STARTCHAR CYRILLIC SMALL LETTER BE
ENCODING 1073
SWIDTH 672 0
DWIDTH 14 0
BBX 10 10 2 0
BITMAP
FFC0
FFC0
C000
C000
FFC0
FFC0
C0C0
C0C0
FFC0
FFC0
ENDCHAR
STARTCHAR CYRILLIC SMALL LETTER VE
ENCODING 1074
SWIDTH 672 0
DWIDTH 14 0
BBX 10 10 2 0
BITMAP
FFC0
FFC0
C0C0
C0C0
FF00
FF00
C0C0
C0C0
FFC0
FFC0
ENDCHAR
STARTCHAR CYRILLIC SMALL LETTER GHE
ENCODING 1075
SWIDTH 672 0
DWIDTH 14 0
BBX 10 10 2 0
BITMAP
FFC0
FFC0
C000
C000
C000
C000
C000
C000
C000
C000
ENDCHAR
STARTCHAR CYRILLIC SMALL LETTER DE
ENCODING 1076
SWIDTH 672 0
DWIDTH 14 0
BBX 12 12 2 -2
BITMAP
3FC0
3FC0
30C0
30C0
30C0
30C0
30C0
30C0
FFF0
FFF0
C030
C030
ENDCHAR
STARTCHAR CYRILLIC SMALL LETTER IE
ENCODING 1077
SWIDTH 672 0
DWIDTH 14 0
BBX 10 10 2 0
BITMAP
FFC0
FFC0
C0C0
C0C0
FFC0
FFC0
C000
C000
FFC0
FFC0
ENDCHAR
STARTCHAR CYRILLIC SMALL LETTER ZHE
ENCODING 1078
SWIDTH 672 0
DWIDTH 14 0
BBX 10 10 2 0
BITMAP
CCC0
CCC0
CCC0
6D80
3F00
3F00
6D80
CCC0
CCC0
CCC0
ENDCHAR
STARTCHAR CYRILLIC SMALL LETTER ZE
ENCODING 1079
SWIDTH 672 0
DWIDTH 14 0
BBX 10 10 2 0
BITMAP
FFC0
FFC0
00C0
00C0
0FC0
0FC0
00C0
00C0
FFC0
FFC0
ENDCHAR
STARTCHAR CYRILLIC SMALL LETTER I
ENCODING 1080
SWIDTH 672 0
DWIDTH 14 0
BBX 10 10 2 0
BITMAP
C0C0
C1C0
C3C0
C7C0
CEC0
DCC0
F8C0
F0C0
E0C0
C0C0
ENDCHAR
STARTCHAR CYRILLIC SMALL LETTER SHORT I
ENCODING 1081
SWIDTH 672 0
DWIDTH 14 0
BBX 10 14 2 0
BITMAP
0F00
0F00
0000
0000
C0C0
C1C0
C3C0
C7C0
CEC0
DCC0
F8C0
F0C0
E0C0
C0C0
ENDCHAR
STARTCHAR CYRILLIC SMALL LETTER KA
ENCODING 1082
SWIDTH 672 0
DWIDTH 14 0
BBX 10 10 2 0
BITMAP
C0C0
C1C0
C380
C700
FE00
FE00
C700
C380
C1C0
C0C0
ENDCHAR
STARTCHAR CYRILLIC SMALL LETTER EL
ENCODING 1083
SWIDTH 672 0
DWIDTH 14 0
BBX 10 10 2 0
BITMAP
0FC0
1FC0
38C0
70C0
E0C0
C0C0
C0C0
C0C0
C0C0
C0C0
ENDCHAR
STARTCHAR CYRILLIC SMALL LETTER EM
ENCODING 1084
SWIDTH 672 0
DWIDTH 14 0
BBX 10 10 2 0
BITMAP
C0C0
E1C0
F3C0
FFC0
DEC0
CCC0
C0C0
C0C0
C0C0
C0C0
ENDCHAR
STARTCHAR CYRILLIC SMALL LETTER EN
ENCODING 1085
SWIDTH 672 0
DWIDTH 14 0
BBX 10 10 2 0
BITMAP
C0C0
C0C0
C0C0
C0C0
FFC0
FFC0
C0C0
C0C0
C0C0
C0C0
ENDCHAR
STARTCHAR CYRILLIC SMALL LETTER O
ENCODING 1086
SWIDTH 672 0
DWIDTH 14 0
BBX 10 10 2 0
BITMAP
FFC0
FFC0
C0C0
C0C0
C0C0
C0C0
C0C0
C0C0
FFC0
FFC0
ENDCHAR
STARTCHAR CYRILLIC SMALL LETTER PE
ENCODING 1087
SWIDTH 672 0
DWIDTH 14 0
BBX 10 10 2 0
BITMAP
FFC0
FFC0
C0C0
C0C0
C0C0
C0C0
C0C0
C0C0
C0C0
C0C0
ENDCHAR
STARTCHAR CYRILLIC SMALL LETTER ER
ENCODING 1088
SWIDTH 672 0
DWIDTH 14 0
BBX 10 10 2 0
BITMAP
FFC0
FFC0
C0C0
C0C0
FFC0
FFC0
C000
C000
C000
C000
ENDCHAR
STARTCHAR CYRILLIC SMALL LETTER ES
ENCODING 1089
SWIDTH 672 0
DWIDTH 14 0
BBX 10 10 2 0
BITMAP
FFC0
FFC0
C000
C000
C000
C000
C000
C000
FFC0
FFC0
ENDCHAR
STARTCHAR CYRILLIC SMALL LETTER TE
ENCODING 1090
SWIDTH 672 0
DWIDTH 14 0
BBX 10 10 2 0
BITMAP
FFC0
FFC0
0C00
0C00
0C00
0C00
0C00
0C00
0C00
0C00
ENDCHAR
STARTCHAR CYRILLIC SMALL LETTER U
ENCODING 1091
SWIDTH 672 0
DWIDTH 14 0
BBX 10 14 2 -4
BITMAP
C0C0
C0C0
C0C0
C0C0
C0C0
C0C0
C0C0
C0C0
FFC0
FFC0
00C0
00C0
FFC0
FFC0
ENDCHAR
STARTCHAR CYRILLIC SMALL LETTER EF
ENCODING 1092
SWIDTH 672 0
DWIDTH 14 0
BBX 10 10 2 0
BITMAP
FFC0
FFC0
CCC0
CCC0
FFC0
FFC0
0C00
0C00
0C00
0C00
ENDCHAR
STARTCHAR CYRILLIC SMALL LETTER HA
ENCODING 1093
SWIDTH 672 0
DWIDTH 14 0
BBX 10 10 2 0
BITMAP
C0C0
E1C0
7380
3F00
1E00
1E00
3F00
7380
E1C0
C0C0
ENDCHAR
STARTCHAR CYRILLIC SMALL LETTER TSE
ENCODING 1094
SWIDTH 672 0
DWIDTH 14 0
BBX 12 12 2 -2
BITMAP
C0C0
C0C0
C0C0
C0C0
C0C0
C0C0
C0C0
C0C0
FFF0
FFF0
0030
0030
ENDCHAR
STARTCHAR CYRILLIC SMALL LETTER CHE
ENCODING 1095
SWIDTH 672 0
DWIDTH 14 0
BBX 10 10 2 0
BITMAP
C0C0
C0C0
C0C0
C0C0
FFC0
FFC0
00C0
00C0
00C0
00C0
ENDCHAR
STARTCHAR CYRILLIC SMALL LETTER SHA
ENCODING 1096
SWIDTH 672 0
DWIDTH 14 0
BBX 10 10 2 0
BITMAP
C0C0
C0C0
C0C0
C0C0
CCC0
CCC0
CCC0
CCC0
FFC0
FFC0
ENDCHAR
STARTCHAR CYRILLIC SMALL LETTER SHCHA
ENCODING 1097
SWIDTH 672 0
DWIDTH 14 0
BBX 12 12 2 -2
BITMAP
C0C0
C0C0
C0C0
C0C0
CCC0
CCC0
CCC0
CCC0
FFF0
FFF0
0030
0030
ENDCHAR
STARTCHAR CYRILLIC SMALL LETTER HARD SIGN
ENCODING 1098
SWIDTH 672 0
DWIDTH 14 0
BBX 12 10 0 0
BITMAP
F000
F000
3000
3000
3FF0
3FF0
3030
3030
3FF0
3FF0
ENDCHAR
STARTCHAR CYRILLIC SMALL LETTER YERU
ENCODING 1099
SWIDTH 768 0
DWIDTH 16 0
BBX 12 10 2 0
BITMAP
C030
C030
C030
C030
FF30
FF30
C330
C330
FF30
FF30
ENDCHAR
STARTCHAR CYRILLIC SMALL LETTER SOFT SIGN
ENCODING 1100
SWIDTH 672 0
DWIDTH 14 0
BBX 10 10 2 0
BITMAP
C000
C000
C000
C000
FFC0
FFC0
C0C0
C0C0
FFC0
FFC0
ENDCHAR
STARTCHAR CYRILLIC SMALL LETTER E
ENCODING 1101
SWIDTH 672 0
DWIDTH 14 0
BBX 10 10 2 0
BITMAP
FFC0
FFC0
00C0
00C0
FFC0
FFC0
00C0
00C0
FFC0
FFC0
ENDCHAR
STARTCHAR CYRILLIC SMALL LETTER YU
ENCODING 1102
SWIDTH 768 0
DWIDTH 16 0
BBX 12 10 2 0
BITMAP
C3F0
C3F0
C330
C330
FF30
FF30
C330
C330
C3F0
C3F0
ENDCHAR
STARTCHAR CYRILLIC SMALL LETTER YA
ENCODING 1103
SWIDTH 576 0
DWIDTH 12 0
BBX 8 10 2 0
BITMAP
FF
FF
C3
C3
FF
FF
3B
73
E3
C3
ENDCHAR
STARTCHAR CYRILLIC SMALL LETTER IO
ENCODING 1105
SWIDTH 576 0
DWIDTH 12 0
BBX 12 14 0 0
BITMAP
0CC0
0CC0
0000
0000
3FF0
3FF0
3030
3030
3FF0
3FF0
3000
3000
3FF0
3FF0
ENDCHAR
STARTCHAR HEBREW LETTER ALEF
ENCODING 1488
SWIDTH 576 0
DWIDTH 12 0
BBX 10 10 1 0
BITMAP
C0C0
60C0
30C0
78C0
CCC0
C7C0
C380
C180
C0C0
C040
ENDCHAR
STARTCHAR HEBREW LETTER BET
ENCODING 1489
SWIDTH 576 0
DWIDTH 12 0
BBX 10 10 1 0
BITMAP
FC00
FE00
0300
0300
0300
0300
0300
0300
FFC0
FFC0
ENDCHAR
STARTCHAR HEBREW LETTER GIMEL
ENCODING 1490
SWIDTH 480 0
DWIDTH 10 0
BBX 8 10 1 0
BITMAP
FC
FE
03
03
3F
7F
C3
C3
C3
C3
ENDCHAR
STARTCHAR HEBREW LETTER DALET
ENCODING 1491
SWIDTH 576 0
DWIDTH 12 0
BBX 10 10 1 0
BITMAP
FFC0
FFC0
0300
0300
0300
0300
0300
0300
0300
0300
ENDCHAR
STARTCHAR HEBREW LETTER HE
ENCODING 1492
SWIDTH 576 0
DWIDTH 12 0
BBX 10 10 1 0
BITMAP
FF00
FF80
00C0
00C0
C0C0
C0C0
C0C0
C0C0
C0C0
C0C0
ENDCHAR
STARTCHAR HEBREW LETTER VAV
ENCODING 1493
SWIDTH 384 0
DWIDTH 8 0
BBX 6 10 1 0
BITMAP
F0
F8
1C
0C
0C
0C
0C
0C
0C
0C
ENDCHAR
STARTCHAR HEBREW LETTER ZAYIN
ENCODING 1494
SWIDTH 384 0
DWIDTH 8 0
BBX 6 10 1 0
BITMAP
F0
F0
3C
3C
30
30
30
30
30
30
ENDCHAR
STARTCHAR HEBREW LETTER HET
ENCODING 1495
SWIDTH 576 0
DWIDTH 12 0
BBX 10 10 1 0
BITMAP
FF00
FF00
30C0
30C0
30C0
30C0
30C0
30C0
30C0
30C0
ENDCHAR
STARTCHAR HEBREW LETTER TET
ENCODING 1496
SWIDTH 576 0
DWIDTH 12 0
BBX 10 10 1 0
BITMAP
C1C0
C3C0
C6C0
CCC0
C0C0
C0C0
C0C0
C0C0
7F80
3F00
ENDCHAR
STARTCHAR HEBREW LETTER YOD
ENCODING 1497
SWIDTH 384 0
DWIDTH 8 0
BBX 6 6 1 4
BITMAP
F0
F8
1C
0C
0C
0C
ENDCHAR
STARTCHAR HEBREW LETTER FINAL KAF
ENCODING 1498
SWIDTH 576 0
DWIDTH 12 0
BBX 10 12 1 -2
BITMAP
FF00
FF80
01C0
00C0
00C0
00C0
00C0
00C0
00C0
00C0
00C0
00C0
ENDCHAR
STARTCHAR HEBREW LETTER KAF
ENCODING 1499
SWIDTH 576 0
DWIDTH 12 0
BBX 10 10 1 0
BITMAP
FF00
FF80
01C0
00C0
00C0
00C0
00C0
01C0
FF80
FF00
ENDCHAR
STARTCHAR HEBREW LETTER LAMED
ENCODING 1500
SWIDTH 480 0
DWIDTH 10 0
BBX 8 12 1 0
BITMAP
C0
C0
FC
7E
03
03
03
03
06
0C
18
30
ENDCHAR
STARTCHAR HEBREW LETTER FINAL MEM
ENCODING 1501
SWIDTH 576 0
DWIDTH 12 0
BBX 10 10 1 0
BITMAP
FE00
FF00
C180
C0C0
C0C0
C0C0
C0C0
C0C0
FFC0
FFC0
ENDCHAR
STARTCHAR HEBREW LETTER MEM
ENCODING 1502
SWIDTH 624 0
DWIDTH 13 0
BBX 11 10 1 0
BITMAP
C380
67C0
3C60
1860
3060
6060
6060
6060
67C0
6780
ENDCHAR
STARTCHAR HEBREW LETTER FINAL NUN
ENCODING 1503
SWIDTH 384 0
DWIDTH 8 0
BBX 6 12 1 -2
BITMAP
F0
F8
0C
0C
0C
0C
0C
0C
0C
0C
0C
0C
ENDCHAR
STARTCHAR HEBREW LETTER NUN
ENCODING 1504
SWIDTH 384 0
DWIDTH 8 0
BBX 6 10 1 0
BITMAP
30
18
0C
0C
0C
0C
0C
0C
FC
FC
ENDCHAR
STARTCHAR HEBREW LETTER SAMEKH
ENCODING 1505
SWIDTH 576 0
DWIDTH 12 0
BBX 10 10 1 0
BITMAP
FF00
FF80
C0C0
C0C0
C0C0
C0C0
C0C0
C0C0
7F80
3F00
ENDCHAR
STARTCHAR HEBREW LETTER AYIN
ENCODING 1506
SWIDTH 576 0
DWIDTH 12 0
BBX 10 10 1 0
BITMAP
30C0
30C0
30C0
30C0
30C0
30C0
30C0
30C0
FF80
FF00
ENDCHAR
STARTCHAR HEBREW LETTER FINAL PE
ENCODING 1507
SWIDTH 576 0
DWIDTH 12 0
BBX 10 12 1 -2
BITMAP
FF00
FF80
C0C0
C0C0
7CC0
3CC0
00C0
00C0
00C0
00C0
00C0
00C0
ENDCHAR
STARTCHAR HEBREW LETTER PE
ENCODING 1508
SWIDTH 576 0
DWIDTH 12 0
BBX 10 10 1 0
BITMAP
FF00
FF80
C0C0
C0C0
7CC0
3CC0
00C0
00C0
FF80
FF00
ENDCHAR
STARTCHAR HEBREW LETTER FINAL TSADI
ENCODING 1509
SWIDTH 576 0
DWIDTH 12 0
BBX 10 12 1 -2
BITMAP
C0C0
C0C0
C0C0
C0C0
6180
3300
1E00
0C00
0600
0300
0180
00C0
ENDCHAR
STARTCHAR HEBREW LETTER TSADI
ENCODING 1510
SWIDTH 576 0
DWIDTH 12 0
BBX 10 10 1 0
BITMAP
C0C0
60C0
3180
1B00
0E00
0600
0300
0180
FFC0
FFC0
ENDCHAR
STARTCHAR HEBREW LETTER QOF
ENCODING 1511
SWIDTH 576 0
DWIDTH 12 0
BBX 10 12 1 -2
BITMAP
FF00
FF80
00C0
00C0
C0C0
C0C0
C380
C300
C000
C000
C000
C000
ENDCHAR
STARTCHAR HEBREW LETTER RESH
ENCODING 1512
SWIDTH 576 0
DWIDTH 12 0
BBX 10 10 1 0
BITMAP
FF00
FF80
00C0
00C0
00C0
00C0
00C0
00C0
00C0
00C0
ENDCHAR
STARTCHAR HEBREW LETTER SHIN
ENCODING 1513
SWIDTH 576 0
DWIDTH 12 0
BBX 10 10 1 0
BITMAP
CCC0
CCC0
CCC0
CCC0
F8C0
F0C0
C0C0
C0C0
FF80
FF00
ENDCHAR
STARTCHAR HEBREW LETTER TAV
ENCODING 1514
SWIDTH 576 0
DWIDTH 12 0
BBX 10 10 1 0
BITMAP
FF00
FF80
30C0
30C0
30C0
30C0
30C0
30C0
F0C0
F0C0
ENDCHAR
STARTCHAR DOUBLE LOW LINE
ENCODING 8215
SWIDTH 576 0
DWIDTH 12 0
BBX 12 6 0 -2
BITMAP
FFF0
FFF0
0000
0000
FFF0
FFF0
ENDCHAR
ENDFONT
